<svg id="Layer_1" data-name="Layer 1" xmlns="http://www.w3.org/2000/svg" viewBox="0 0 230.21 101.56"><defs><style>.cls-1{fill:#fefefe;}.cls-2{fill:#161617;}.cls-3{fill:#6b778c;}.cls-4{fill:#151515;}.cls-5{fill:#6d798d;}.cls-6{fill:#f9f9f9;}</style></defs><title>balbatross</title><path class="cls-1" d="M29.76,280.32c-10.32,0-10.32,0-10.32-10.32q0-45.1,0-90.22c0-.78.1-1,1-1q114.17,0,228.32,0c.76,0,.92.15.92.92q0,49.85,0,99.7c0,1.08-.48.93-1.15.93H30l3.1-1.24c4.42-1.37,9.16-2.15,13.17-4.29,3.18-1.7,5.27-7,8.18-7.32,8.93-.87,17.78,1.37,26.41,4,3,.91-.68,1.43-.12,2.12,1.27,1.55,3-2.42,4.22.33,3.78-2.9,5.54,2.05,8.61,2.27,2.16.16,4.22,1.82,6.36,1.88,5,.16,10-.22,15-.45a10.12,10.12,0,0,0,2.82-.58c.22-.07.37-1.11.3-1.14-2.32-1.05-.47-2.36.08-3,1.27-1.42,2.66-2.68,3.91-4.14,3.51-4.09,8.65-6.16,13.86-7.7.86.54.88,1.13.27,2.09-.09.15.42,1,.75,1.05,2.62.58.44,1.82.29,2.61-.19,1-1.13.65-2,.63a9.35,9.35,0,0,0-2.68.77,12.4,12.4,0,0,1,2.1.83c.83.52,2.38-.6,2.7,1.34.08.5,1.23,1.05,2.4,1.28,2.61.52,4-2.3,6.36-1.64.49.14,1,.94,1.32.84a42,42,0,0,1,7.87-1.33c4.39-.59,8.65-2,13-2.85,3.24-.62,7.45.27,9.63-1.49,4.71-3.82,9.76-1,14.53-2.11,5.06-1.15,11.07,3.1,15.56-2.17,3.26-3.82,6.69-7.7,8.9-12.12,1.11-2.22,3.17-3.89,3.64-6.44,1.87-10,.53-18.76-9.39-24.19-1.19-.67-2.61-1.11-3.52-2-2.56-2.63,1.85-1.36,1.3-1.85-2.27-2-.58-6.63-4.57-7.18s-7.88-1.15-10.85-4.21c-1.18-1.23-3.21-1-3.89-3.44a6.77,6.77,0,0,0-6.37-5c-2.74,0-5.24,7.56-3.46,10.2,1.48,2.2,3.34,4,1.73,7.05s-.14,6.67-3.15,9.56c-.77.75-6.08,2.71-2.46,6.33,0,0-.16.36-.19.35-.21-.06-.5-.12-.61-.28-.59-.93-1.48-1.35-2.3-.66s-1.84,2-1.61,2.46c1.59,3.27-1.16,2.4-2.51,2.87l-1.22-.7c.17-.5.63-1.14.47-1.47-1.11-2.26-.21-3.85,1.11-5.76.93-1.37.8-3.46,1.15-5.23-2-.36-.34-1.48-.46-2.23a14.27,14.27,0,0,0,1.26.82,12.54,12.54,0,0,0,1.41.56,3.68,3.68,0,0,1-.11-1.08c.36-1.72.32-3.82,1.33-5,.7-.82,1.85.58,1.82,1.94.13,0,.34,0,.38-.11,1.2-2.4,2.88-4.6,1.61-7.63-1.18-2.84-2.31-5.72-.22-8.84.89-1.33,1-3.21,1.38-4.84a.94.94,0,0,0-.57-.26c-2.21.34-1.6,2.75-2.8,3.91a1.52,1.52,0,0,0-.1,2.35l.24.4v0c-.51.87-1,1.78-1.54,2.6-1.09,1.5-.85,4.79-2.94,4.53-6-.76-11.87.27-17.79.63h-.48l-.25.21-.23,0-.23-.07-.49-.18-5.29,0c-13.16,1.26-24.93,7.59-37.73,10.26-6.32,1.32-12.81,2.68-19,3.37a91.23,91.23,0,0,0-21.69,4.81c-5.38,2-7.78,7.11-12.14,10-5.88,3.87-12.69,7.44-14.41,14.48-1.14,4.71-5,5-7.32,6.43C31,258,28.46,260.68,25,261.47c-.5.11,1.47,1.37-.42,1.35-.28,0-.57.34-.85.52a5.5,5.5,0,0,0,1,.21q11.16.9,22.31,1.8a10.51,10.51,0,0,1,1.35.3c-.42.24-.84.5-1.27.72-1.16.6-2.33,1.17-3.49,1.76a2.31,2.31,0,0,0,.62.43c1.08.3,2.16.56,3.24.84-1.1.62-2.22,1.23-3.31,1.88s-2.37,1.44-3.56,2.16C36.75,275.42,32.89,277.29,29.76,280.32Zm184.72-66.94c-3.28.58-5.56,1.23-.24,2.62.33.09.55.63.82.95-.68.53-2.26-.17-2.11,1.34.05.45,1,.87,1.64,1.19,2.09,1.1,2.29,1,2.61-1.36a8.64,8.64,0,0,1,1.77.14c9.59,2.77,17.37,8.71,25.22,14.5.63.46,1.26,2,1.36,1.92a6.46,6.46,0,0,0,3.32-4.29,6.34,6.34,0,0,0,.24-1.61,13.74,13.74,0,0,0-.2-1.68,8.17,8.17,0,0,1-.29,1.39c-.27.67-.79,2.06-1.43,1.23a29.3,29.3,0,0,0-11.49-9.4c-4.29-1.89-8.38-4.24-12.55-6.38l-7.86-5.37A6.93,6.93,0,0,1,220.1,210a1,1,0,0,0,1-.11c1.88-2.35,2.58.15,3.71.87l1.64,1a15,15,0,0,1-1.16-1.5c-.63-1-1.19-2.11-1.78-3.17.57.27,1.13.58,1.73.8.11,0,.53-.37.52-.39-1.5-2.36-2.72-5.64-6.12-5-2.12.43,1,1.73.43,2.83a4.38,4.38,0,0,1-.64,1.09,21.73,21.73,0,0,1-2.3-1.06c.13-.15.26-.41.39-.42.52,0,1,.07,1.55.11-.44-.54-.89-1.08-1.32-1.63-.65-.82-1.79-1.66-1.79-2.48s1-1.88,1.62-2.82a16.14,16.14,0,0,0,1.12,2.7c.89,1.43,2.5,1.15,3.88,1.3.07,0,.46-.93.31-1.13-1.72-2.24-1.55-5-2.34-7.51-3.49-10.91-20.09-16-29.4-8.87-1.13.87-3.93,1.11-3.36,3.06.78,2.63,3.38,3.23,5.93,2.78s4.41.92,6.4,2c.37.2.61.66.91,1a11.44,11.44,0,0,1-1.5-.71c-2.82-1.8-5.76-1.39-8.7-.48-.27.09-.3.92-.45,1.4a22.85,22.85,0,0,1,3.2-1.1,10.63,10.63,0,0,1,2.69.11c.11,0,.21.21.32.32-.54.1-1.09.19-1.62.32a8.23,8.23,0,0,0-2.94.8c-2.06,1.49.48,2.15.75,3.25,3.28-1.18,3.09,2.27,4.46,3.14a20.92,20.92,0,0,0,11.53,3.24c2.88-.07,3.62,2.77,5.54,4C213.07,209.76,214.9,211.54,214.48,213.38Z" transform="translate(-19.42 -178.78)"/><path class="cls-2" d="M33.1,279.08,30,280.32h-.24c3.13-3,7-4.9,10.79-6.88a16,16,0,0,1-1.31,1.18C37.2,276.12,35.14,277.6,33.1,279.08Z" transform="translate(-19.42 -178.78)"/><path class="cls-3" d="M33.1,279.08c2-1.48,4.1-3,6.14-4.46a16,16,0,0,0,1.31-1.18c1.19-.72,2.36-1.46,3.56-2.16s2.21-1.26,3.31-1.88c-1.08-.28-2.16-.54-3.24-.84a2.31,2.31,0,0,1-.62-.43c1.16-.59,2.33-1.16,3.49-1.76.43-.22.85-.48,1.27-.72a10.51,10.51,0,0,0-1.35-.3q-11.14-.92-22.31-1.8a5.5,5.5,0,0,1-1-.21c.28-.18.57-.52.85-.52,1.89,0-.08-1.24.42-1.35,3.49-.79,6.06-3.51,8.86-5.27,2.34-1.47,6.18-1.72,7.32-6.43,1.72-7,8.53-10.61,14.41-14.48,4.36-2.86,6.76-8,12.14-10a91.23,91.23,0,0,1,21.69-4.81c6.22-.69,12.71-2,19-3.37,12.8-2.67,24.57-9,37.73-10.26a7.18,7.18,0,0,0,1.55,1c2.49.71,5.05,1.24,7.48,2.1.47.17.5,1.56.74,2.38-.7,0-1.57.28-2.07,0-1.87-1.17-2.36-.25-1.89,1.32,1.91,6.46-.87,6.21-5.28,3.83a.54.54,0,0,0-.47.09c-.14,1-.26,2.11-.33,3.17a.89.89,0,0,0,.67.28c4.07-1.73,1.5,1.27,1.68,2.33s.45,2.27.68,3.4c.27-.48.5-1,.79-1.45s.54-1.06,1-1.21a1.43,1.43,0,0,1,1.32.48,7.73,7.73,0,0,1,.25,2.41c0,.38-.4.76-.39,1.13,0,1.3,2.56,3-.76,3.72-.48.1-.84.79-1.25,1.21a4.9,4.9,0,0,0,1.47.31c1-.11,2.2-.82,3-.5,3.33,1.35,2.95,3.12.21,4.87l-.69.32c-1.64.42-3.47.5-4.89,1.31-3.75,2.15-5.95,6.62-10.78,7.25a12.64,12.64,0,0,0-2.71.94c-.17.07-.41.31-.4.46a1.71,1.71,0,0,0,.32.75.42.42,0,0,0,.36,0c.91-1.71,2.27-.54,3.46-.61,2.87-.16,3.44,3.89,6.48,3.42.34,0,.82.81,1.23,1.26-.53,0-1.06,0-1.58,0-.35,0-.7,0-1,.05,0,.27,0,.73.09.77a3.06,3.06,0,0,0,1.17.14c1.21-.05,2.27,1.64,3.59.33.5,1.46-1,1.28-1.53,1.52a47.73,47.73,0,0,1-5.26,1.76c-2.41.44-4.71,1.08-6.17,3.3l-.26.47c-5.21,1.54-10.35,3.61-13.86,7.7-1.25,1.46-2.64,2.72-3.91,4.14-.55.62-2.4,1.93-.08,3,.07,0-.08,1.07-.3,1.14a10.12,10.12,0,0,1-2.82.58c-5,.23-10,.61-15,.45-2.14-.06-4.2-1.72-6.36-1.88C90.5,276,88.74,271,85,273.9c-1.21-2.75-2.95,1.22-4.22-.33-.56-.69,3.12-1.21.12-2.12-8.63-2.61-17.48-4.85-26.41-4-2.91.28-5,5.62-8.18,7.32C42.26,276.93,37.52,277.71,33.1,279.08Z" transform="translate(-19.42 -178.78)"/><path class="cls-4" d="M142.3,257.29a47.73,47.73,0,0,0,5.26-1.76c.53-.24,2-.06,1.53-1.52-1.32,1.31-2.38-.38-3.59-.33a3.06,3.06,0,0,1-1.17-.14c-.11,0-.06-.5-.09-.77.35,0,.7-.05,1-.05.52,0,1.05,0,1.58,0-.41-.45-.89-1.31-1.23-1.26-3,.47-3.61-3.58-6.48-3.42-1.19.07-2.55-1.1-3.46.61a.42.42,0,0,1-.36,0A1.71,1.71,0,0,1,135,248c0-.15.23-.39.4-.46a12.64,12.64,0,0,1,2.71-.94c4.83-.63,7-5.1,10.78-7.25,1.42-.81,3.25-.89,4.89-1.31l.33.35c.81,1-3.2,1.84,0,2.84l3.43,2.47-.16.44a.32.32,0,0,0-.14.14L154.79,246l-1.46.26-.44-.12,0,.46c-.94,1.36-2.76,2.35-1.95,4.48l-.33,1.2,1.15-.12-.35-.87a.58.58,0,0,1,0-.19c3,.26,2.07-4.72,5.4-3.95l.12.12.33,2.38a11,11,0,0,1,2.53-1.54c2.36-.66,2.75-3,3.91-4.55,1.89-2.57,5-4.07,5.94-7.61.44-1.62,2.81-2.75,4.41-4,.11-.09,1.43.79,1.44,1.22,0,3.09,2.29,3.84,4.56,4.29,1,.21,1.41-.11,1.56-2,.24-2.94,3.56-5.16,3.94-8.95.25-2.51,3.35-4.63,4.59-7.2.53-1.12-.42-2.95-.7-4.46,1.57,0,3.15.16,4.72,0,6-.45,10.83,4.67,17,3.26,9.92,5.43,11.26,14.18,9.39,24.19-.47,2.55-2.53,4.22-3.64,6.44-2.21,4.42-5.64,8.3-8.9,12.12-4.49,5.27-10.5,1-15.56,2.17-4.77,1.08-9.82-1.71-14.53,2.11-2.18,1.76-6.39.87-9.63,1.49-4.36.83-8.62,2.26-13,2.85a42,42,0,0,0-7.87,1.33c-.31.1-.83-.7-1.32-.84-2.35-.66-3.75,2.16-6.36,1.64-1.17-.23-2.32-.78-2.4-1.28-.32-1.94-1.87-.82-2.7-1.34a12.4,12.4,0,0,0-2.1-.83,9.35,9.35,0,0,1,2.68-.77c.82,0,1.76.4,2-.63.15-.79,2.33-2-.29-2.61-.33-.07-.84-.9-.75-1.05.61-1,.59-1.55-.27-2.09.08-.16.17-.32.26-.47,1.92-.54,3.86-1,5.76-1.63a5.16,5.16,0,0,0,1.32-.92Zm5.06-13.45.08,0-.08,0-.38-.2-.06.14Zm.22,4.82.38.58.24-.24-.58-.38-.38-.58-.24.24Zm3.19,4.38c-.29-.2-.47-.43-.64-.43s-.32.26-.49.4c.14.14.28.38.42.38S150.44,253.21,150.77,253Zm.78-8-.33.17a1,1,0,0,0,.33.1,1.36,1.36,0,0,0,.32-.08Zm.1-3.65-.08-.18s-.08,0-.08.07a1.5,1.5,0,0,0,0,.2Zm-6,3.36-.08-.18s-.08,0-.08.07a1.5,1.5,0,0,0,0,.2Zm2.9.26.08,0s0-.05-.07-.06-.05,0-.07,0Zm-2.44-1,.08,0s0-.06,0-.07-.05,0-.08,0Zm5.64-1.94h-.14s0,.05.07.06S151.73,242.06,151.75,242Z" transform="translate(-19.42 -178.78)"/><path class="cls-3" d="M156.87,247.11c-3.33-.77-2.44,4.21-5.4,3.95q1.67-2.55,3.32-5.1l2.42-1.73a.85.85,0,0,0,.22.09c5.48-2,5.85-2.54,4.43-6.52-.07-.22.16-.57.3-.84,1.34-2.74,5.32-1.75,6.56-4.65,1.35-.47,4.1.4,2.51-2.87-.23-.47.86-1.83,1.61-2.46s1.71-.27,2.3.66c.11.16.4.22.61.28,0,0,.22-.32.19-.35-3.62-3.62,1.69-5.58,2.46-6.33,3-2.89,1.6-6.65,3.15-9.56s-.25-4.85-1.73-7.05c-1.78-2.64.72-10.18,3.46-10.2a6.77,6.77,0,0,1,6.37,5c.68,2.46,2.71,2.21,3.89,3.44,3,3.06,6.85,3.65,10.85,4.21s2.3,5.17,4.57,7.18c.55.49-3.86-.78-1.3,1.85.91.93,2.33,1.37,3.52,2-6.13,1.41-11-3.71-17-3.26-1.57.12-3.15,0-4.72,0,.28,1.51,1.23,3.34.7,4.46-1.24,2.57-4.34,4.69-4.59,7.2-.38,3.79-3.7,6-3.94,8.95-.15,1.86-.51,2.18-1.56,2-2.27-.45-4.53-1.2-4.56-4.29,0-.43-1.33-1.31-1.44-1.22-1.6,1.23-4,2.36-4.41,4-.95,3.54-4,5-5.94,7.61-1.16,1.56-1.55,3.89-3.91,4.55a11,11,0,0,0-2.53,1.54l-.33-2.38.14-.15Z" transform="translate(-19.42 -178.78)"/><path class="cls-5" d="M214.31,207.89c-1.92-1.24-2.66-4.08-5.54-4a20.92,20.92,0,0,1-11.53-3.24c-1.37-.87-1.18-4.32-4.46-3.14-.27-1.1-2.81-1.76-.75-3.25a8.23,8.23,0,0,1,2.94-.8c.53-.13,1.08-.22,1.62-.32-.11-.11-.21-.31-.32-.32a10.63,10.63,0,0,0-2.69-.11,22.85,22.85,0,0,0-3.2,1.1c.15-.48.18-1.31.45-1.4,2.94-.91,5.88-1.32,8.7.48a11.44,11.44,0,0,0,1.5.71c-.3-.34-.54-.8-.91-1-2-1.09-3.85-2.46-6.4-2s-5.15-.15-5.93-2.78c-.57-2,2.23-2.19,3.36-3.06,9.31-7.12,25.91-2,29.4,8.87.79,2.49.62,5.27,2.34,7.51.15.2-.24,1.14-.31,1.13-1.38-.15-3,.13-3.88-1.3a16.14,16.14,0,0,1-1.12-2.7c-.59.94-1.62,1.88-1.62,2.82s1.14,1.66,1.79,2.48c.43.55.88,1.09,1.32,1.63-.52,0-1-.12-1.55-.11-.13,0-.26.27-.39.42a21.73,21.73,0,0,0,2.3,1.06,4.38,4.38,0,0,0,.64-1.09c.56-1.1-2.55-2.4-.43-2.83,3.4-.69,4.62,2.59,6.12,5,0,0-.41.43-.52.39-.6-.22-1.16-.53-1.73-.8.59,1.06,1.15,2.13,1.78,3.17a15,15,0,0,0,1.16,1.5l-1.64-1c-1.13-.72-1.83-3.22-3.71-.87a1,1,0,0,1-1,.11,6.93,6.93,0,0,0-4.81-1.47Zm-3-7.35c-.72-.17.5-.46.25-1.9-.87-4.9-5.39-2.22-8-3.6-.38-.2-1.18.37-1.78.58C203.66,198.21,206.15,199.76,211.31,200.54Z" transform="translate(-19.42 -178.78)"/><path class="cls-4" d="M154.49,237.67c2.74-1.75,3.12-3.52-.21-4.87-.79-.32-2,.39-3,.5a4.9,4.9,0,0,1-1.47-.31c.41-.42.77-1.11,1.25-1.21,3.32-.68.8-2.42.76-3.72,0-.37.38-.75.39-1.13a7.73,7.73,0,0,0-.25-2.41,1.43,1.43,0,0,0-1.32-.48c-.41.15-.67.77-1,1.21s-.52,1-.79,1.45c-.23-1.13-.49-2.26-.68-3.4s2.39-4.06-1.68-2.33a.89.89,0,0,1-.67-.28c.07-1.06.19-2.12.33-3.17a.54.54,0,0,1,.47-.09c4.41,2.38,7.19,2.63,5.28-3.83-.47-1.57,0-2.49,1.89-1.32.5.31,1.37,0,2.07,0-.24-.82-.27-2.21-.74-2.38-2.43-.86-5-1.39-7.48-2.1a7.18,7.18,0,0,1-1.55-1l5.29,0,.27.76.22-.58.23.07.55.57.41-.84c5.92-.36,11.77-1.39,17.79-.63,2.09.26,1.85-3,2.94-4.53.58-.82,1-1.73,1.54-2.6-1.55,3.18,3.32,6.85-.67,9.76a4.5,4.5,0,0,0-2.15,4.11c-1.54-.29.45,6.58-3.47,1.73-.09-.12-1.56-1.48-2.15-.16-.2.47.59,1.41,1,2.1a2.43,2.43,0,0,1,.3,1.87c-.27,1.62-2.89,1-2.39,3v.7a4.42,4.42,0,0,0-1,3.86l0,.37c-1-1-1.92-.39-2.85.11l0,0-3-2.31a21.16,21.16,0,0,1-1,2c-.17.28-.56.42-.85.62-.13-.37-.47-.87-.34-1.07.6-1,.3-2-.57-1.94s-1.77,1-2.65,1.48c.63.89-.81,2.45.68,2.91,4.16,1.28,2.81,5.7,4.85,8.15l-4.54,1.82Zm3.2-27.9c.06-.13.13-.26.18-.39l-.13-.07c0,.15-.05.3-.07.44l0,.1Zm6,5.16c1.1-4.06-1.11-2.66-1.9-3.16-.35-.23-1.44.71-2.19,1.12,1,1.38,1.77,3.2,4,2.18C164,214.88,164.14,214,163.72,214.93ZM153,223.11l1.13.8c-.51-1.14.56-1.41,1.09-2l-1.38-.92Zm4.07-.54a7.62,7.62,0,0,0-1.07-.49c-.08,0-.24.26-.37.4a6.68,6.68,0,0,0,.89.44C156.59,223,156.75,222.76,157,222.57Zm1.06,1.35c-.14-.09-.22-.19-.3-.18s-.15.12-.22.18.14.17.22.18S158,224,158.1,223.92Zm11.79-12.57-.08-.18s-.08,0-.08.07a1.5,1.5,0,0,0,0,.2Zm-8.75-4,.16-.09s-.05-.07-.07-.07a1.38,1.38,0,0,0-.2,0Zm1.58-.13-.19,0a.38.38,0,0,0,0,.15s.08,0,.1,0A.31.31,0,0,0,162.72,207.2Zm-7.68.24-.19,0a.38.38,0,0,0,0,.15s.08,0,.1,0A.31.31,0,0,0,155,207.44Zm14.23,4.42a.67.67,0,0,0-.14-.09s-.08,0-.07.06a.46.46,0,0,0,.07.16A.86.86,0,0,0,169.27,211.86Zm2-4.73,0-.08s-.05,0-.06.07,0,0,0,.07Z" transform="translate(-19.42 -178.78)"/><path class="cls-3" d="M164.89,226.07a4.42,4.42,0,0,1,1-3.86l1.59.21-1.59-.91c-.5-1.95,2.12-1.34,2.39-3a2.43,2.43,0,0,0-.3-1.87c-.39-.69-1.18-1.63-1-2.1.59-1.32,2.06,0,2.15.16,3.92,4.85,1.93-2,3.47-1.73a4.5,4.5,0,0,1,2.15-4.11c4-2.91-.88-6.58.67-9.76v0l-.24-.4a1.52,1.52,0,0,1,.1-2.35c1.2-1.16.59-3.57,2.8-3.91a.94.94,0,0,1,.57.26c-.41,1.63-.49,3.51-1.38,4.84-2.09,3.12-1,6,.22,8.84,1.27,3-.41,5.23-1.61,7.63,0,.08-.25.07-.38.11,0-1.36-1.12-2.76-1.82-1.94-1,1.2-1,3.3-1.33,5a3.68,3.68,0,0,0,.11,1.08,12.54,12.54,0,0,1-1.41-.56,14.27,14.27,0,0,1-1.26-.82c.12.75-1.54,1.87.46,2.23-.35,1.77-.22,3.86-1.15,5.23-1.32,1.91-2.22,3.5-1.11,5.76.16.33-.3,1-.47,1.47-1.73,3.47-5.33,3.65-8.4,4.75-2-2.45-.69-6.87-4.85-8.15-1.49-.46-.05-2-.68-2.91.88-.53,1.75-1.45,2.65-1.48s1.17,1,.57,1.94c-.13.2.21.7.34,1.07.29-.2.68-.34.85-.62a21.16,21.16,0,0,0,1-2l3,2.31c-2.56.75,1.91,2-.2,2.78.13.14.3.42.39.39,1.55-.37,3.08-.77,4.62-1.17a15.35,15.35,0,0,1-2.62-.61,14.46,14.46,0,0,1-2.21-1.41c.93-.5,1.86-1.09,2.85-.11l1.83.75c0-1.3.1-2.6.11-3.91,0-.08-.4-.28-.46-.23-.85.67-.66,1.46-.32,2.33A6.89,6.89,0,0,1,164.89,226.07Z" transform="translate(-19.42 -178.78)"/><path class="cls-5" d="M215.06,217c-.27-.32-.49-.86-.82-.95-5.32-1.39-3-2,.24-2.62.68.65,1.37,1.29,2,1.94,2.59,2.54,6.45,1.49,9.35,3.42a102.57,102.57,0,0,0,9.64,5.2c.37.19.93,0,1.4,0a4.69,4.69,0,0,0-.82-.94c-4.37-3-9.33-5.06-12.94-9.07,4.17,2.14,8.26,4.49,12.55,6.38a29.3,29.3,0,0,1,11.49,9.4c.64.83,1.16-.56,1.43-1.23a8.17,8.17,0,0,0,.29-1.39,13.74,13.74,0,0,1,.2,1.68,6.34,6.34,0,0,1-.24,1.61,6.46,6.46,0,0,1-3.32,4.29c-.1,0-.73-1.46-1.36-1.92C236.34,227,228.56,221,219,218.26a8.64,8.64,0,0,0-1.77-.14ZM245.62,231a7.07,7.07,0,0,0-5-5.4c-.16-.05-.74.56-.69.69.35.88.82,1.71,1.25,2.56a7.25,7.25,0,0,1,.29-.9,4.74,4.74,0,0,1,.41-.62,2.38,2.38,0,0,0,.28.84c.95,1.14,1.94,2.25,2.92,3.36Z" transform="translate(-19.42 -178.78)"/><path class="cls-2" d="M223.15,213.94c3.61,4,8.57,6.11,12.94,9.07a4.69,4.69,0,0,1,.82.94c-.47,0-1,.18-1.4,0a102.57,102.57,0,0,1-9.64-5.2c-2.9-1.93-6.76-.88-9.35-3.42-.67-.65-1.36-1.29-2-1.94.42-1.84-1.41-3.62-.17-5.49l1,.68Z" transform="translate(-19.42 -178.78)"/><path class="cls-6" d="M159.1,236.36c3.07-1.1,6.67-1.28,8.4-4.75l1.22.7c-1.24,2.9-5.22,1.91-6.56,4.65-.14.27-.37.62-.3.84,1.42,4,1,4.53-4.43,6.52l-.08-.23.16-.44,2-2.3-5.41-.17c-3.15-1,.86-1.88,0-2.84l.43-.16Z" transform="translate(-19.42 -178.78)"/><path class="cls-3" d="M215.06,217l2.14,1.17c-.32,2.34-.52,2.46-2.61,1.36-.61-.32-1.59-.74-1.64-1.19C212.8,216.78,214.38,217.48,215.06,217Z" transform="translate(-19.42 -178.78)"/><path class="cls-2" d="M153.12,206.9l-.41.84-.55-.57.23,0,.25-.21Z" transform="translate(-19.42 -178.78)"/><path class="cls-2" d="M151.93,207.1l-.22.58-.27-.76Z" transform="translate(-19.42 -178.78)"/><path class="cls-4" d="M175.16,198.72l.24.4Z" transform="translate(-19.42 -178.78)"/><path class="cls-4" d="M152.64,206.91l-.25.21Z" transform="translate(-19.42 -178.78)"/><path class="cls-6" d="M142.3,257.29l.91.75a5.16,5.16,0,0,1-1.32.92c-1.9.6-3.84,1.09-5.76,1.63C137.59,258.37,139.89,257.73,142.3,257.29Z" transform="translate(-19.42 -178.78)"/><path class="cls-2" d="M154.56,238.18l-.43.16-.33-.35.69-.32C154.51,237.84,154.53,238,154.56,238.18Z" transform="translate(-19.42 -178.78)"/><path class="cls-5" d="M154.08,241.18l5.41.17-2,2.3Z" transform="translate(-19.42 -178.78)"/><path class="cls-6" d="M154.79,246q-1.65,2.55-3.32,5.1a.58.58,0,0,0,0,.19L151,251c-.81-2.13,1-3.12,1.95-4.48l.42-.34Z" transform="translate(-19.42 -178.78)"/><path class="cls-2" d="M151,251l.47.21.35.87-1.15.12Z" transform="translate(-19.42 -178.78)"/><path class="cls-2" d="M150.77,253c-.33.17-.52.36-.71.35s-.28-.24-.42-.38c.17-.14.32-.39.49-.4S150.48,252.84,150.77,253Z" transform="translate(-19.42 -178.78)"/><path class="cls-2" d="M147.58,248.66l-.58-.38.24-.24.38.58Z" transform="translate(-19.42 -178.78)"/><path class="cls-2" d="M147.62,248.62l.58.38-.24.24-.38-.58Z" transform="translate(-19.42 -178.78)"/><path class="cls-2" d="M151.55,245l.32.19a1.36,1.36,0,0,1-.32.08,1,1,0,0,1-.33-.1Z" transform="translate(-19.42 -178.78)"/><path class="cls-2" d="M151.65,241.36l-.14.08a1.5,1.5,0,0,1,0-.2s0-.05.08-.07S151.62,241.29,151.65,241.36Z" transform="translate(-19.42 -178.78)"/><path class="cls-2" d="M147.36,243.84l-.44-.06.06-.14.38.2Z" transform="translate(-19.42 -178.78)"/><path class="cls-2" d="M153.33,246.22l-.42.34,0-.46Z" transform="translate(-19.42 -178.78)"/><path class="cls-2" d="M145.65,244.72l-.14.08a1.5,1.5,0,0,1,0-.2s0,0,.08-.07S145.62,244.65,145.65,244.72Z" transform="translate(-19.42 -178.78)"/><path class="cls-2" d="M148.55,245l-.06-.06s0,0,.07,0,.05,0,.07.06Z" transform="translate(-19.42 -178.78)"/><path class="cls-2" d="M146.11,244l0-.07s.06,0,.08,0,0,.05,0,.07Z" transform="translate(-19.42 -178.78)"/><path class="cls-2" d="M151.75,242s-.05.05-.07.05-.05,0-.07-.06Z" transform="translate(-19.42 -178.78)"/><path class="cls-2" d="M157.35,244.09l.08.23a.85.85,0,0,1-.22-.09A.32.32,0,0,1,157.35,244.09Z" transform="translate(-19.42 -178.78)"/><path class="cls-2" d="M147.36,243.84l.08,0-.08,0Z" transform="translate(-19.42 -178.78)"/><path class="cls-4" d="M156.87,247.11l.26,0-.14.15Z" transform="translate(-19.42 -178.78)"/><path class="cls-2" d="M211.31,200.54c-5.16-.78-7.65-2.33-9.53-4.92.6-.21,1.4-.78,1.78-.58,2.61,1.38,7.13-1.3,8,3.6C211.81,200.08,210.59,200.37,211.31,200.54Z" transform="translate(-19.42 -178.78)"/><path class="cls-3" d="M163.72,214.93c.42-.94.31-.05-.12.14-2.2,1-3-.8-4-2.18.75-.41,1.84-1.35,2.19-1.12C162.61,212.27,164.82,210.87,163.72,214.93Z" transform="translate(-19.42 -178.78)"/><path class="cls-2" d="M164.89,226.07a6.89,6.89,0,0,0,1.11-.69c-.34-.87-.53-1.66.32-2.33.06-.05.46.15.46.23,0,1.31-.07,2.61-.11,3.91l-1.83-.75Z" transform="translate(-19.42 -178.78)"/><path class="cls-2" d="M153,223.11l.84-2.1,1.38.92c-.53.57-1.6.84-1.09,2Z" transform="translate(-19.42 -178.78)"/><path class="cls-2" d="M157,222.57c-.29.19-.45.38-.55.35a6.68,6.68,0,0,1-.89-.44c.13-.14.29-.42.37-.4A7.62,7.62,0,0,1,157,222.57Z" transform="translate(-19.42 -178.78)"/><path class="cls-2" d="M165.84,221.51l1.59.91-1.59-.21Z" transform="translate(-19.42 -178.78)"/><path class="cls-2" d="M158.1,223.92c-.14.09-.22.19-.3.18s-.15-.12-.22-.18.14-.17.22-.18S158,223.83,158.1,223.92Z" transform="translate(-19.42 -178.78)"/><path class="cls-2" d="M169.89,211.36l-.14.08a1.5,1.5,0,0,1,0-.2s.05-.05.08-.07S169.86,211.29,169.89,211.36Z" transform="translate(-19.42 -178.78)"/><path class="cls-2" d="M161.14,207.33l-.11-.13a1.38,1.38,0,0,1,.2,0s.05,0,.07.07Z" transform="translate(-19.42 -178.78)"/><path class="cls-2" d="M162.73,207.2a.44.44,0,0,1-.11.12s-.1,0-.1,0a.38.38,0,0,1,0-.15Z" transform="translate(-19.42 -178.78)"/><path class="cls-2" d="M157.67,209.75l.07-.44.13.07c-.05.13-.12.26-.18.39Z" transform="translate(-19.42 -178.78)"/><path class="cls-2" d="M155.05,207.44a.44.44,0,0,1-.11.12s-.1,0-.1,0a.38.38,0,0,1,0-.15Z" transform="translate(-19.42 -178.78)"/><path class="cls-2" d="M169.27,211.86a.86.86,0,0,1-.14.13.46.46,0,0,1-.07-.16s.05-.06.07-.06A.67.67,0,0,1,169.27,211.86Z" transform="translate(-19.42 -178.78)"/><path class="cls-2" d="M171.29,207.13l-.06.06s0-.05,0-.07,0-.05.06-.07Z" transform="translate(-19.42 -178.78)"/><path class="cls-2" d="M157.69,209.77l-.06.08,0-.1Z" transform="translate(-19.42 -178.78)"/><path class="cls-2" d="M162,226.55A14.46,14.46,0,0,0,164.2,228a15.35,15.35,0,0,0,2.62.61c-1.54.4-3.07.8-4.62,1.17-.09,0-.26-.25-.39-.39,2.11-.79-2.36-2,.2-2.78Z" transform="translate(-19.42 -178.78)"/><path class="cls-6" d="M245.62,231l-.51.53c-1-1.11-2-2.22-2.92-3.36a2.38,2.38,0,0,1-.28-.84,4.74,4.74,0,0,0-.41.62,7.25,7.25,0,0,0-.29.9c-.43-.85-.9-1.68-1.25-2.56-.05-.13.53-.74.69-.69A7.07,7.07,0,0,1,245.62,231Z" transform="translate(-19.42 -178.78)"/></svg>