<svg id="Layer_1" data-name="Layer 1" xmlns="http://www.w3.org/2000/svg" viewBox="0 0 50 39"><defs><style>.cls-1{fill:#161617;}.cls-2{fill:#6b778c;}.cls-3{fill:#151515;}.cls-4{fill:#6d798d;}.cls-5{fill:#f9f9f9;}</style></defs><title>Artboard 1</title><path class="cls-1" d="M2.17,30.15l-.69.28H1.43a9.45,9.45,0,0,1,2.38-1.52,3.79,3.79,0,0,1-.29.26Z"/><path class="cls-2" d="M2.17,30.15l1.35-1a3.79,3.79,0,0,0,.29-.26l.79-.48L5.33,28l-.71-.18a1.21,1.21,0,0,1-.14-.1l.77-.39.28-.16c-.1,0-.2-.05-.3-.06L.3,26.72l-.21,0c.06,0,.13-.11.19-.11.42,0,0-.28.09-.3a6.77,6.77,0,0,0,2-1.16c.52-.33,1.36-.38,1.62-1.43.38-1.55,1.88-2.34,3.18-3.2,1-.63,1.5-1.76,2.69-2.2a19.91,19.91,0,0,1,4.79-1.06c1.37-.16,2.81-.46,4.21-.75,2.82-.59,5.43-2,8.33-2.27a1.16,1.16,0,0,0,.35.21c.55.16,1.11.28,1.65.47.1,0,.11.34.16.53-.15,0-.34.06-.45,0-.42-.26-.53-.06-.42.29.42,1.43-.19,1.37-1.17.85,0,0-.1,0-.1,0,0,.23-.06.46-.08.7,0,0,.12.07.15.06.9-.38.33.28.37.51l.15.76a3.3,3.3,0,0,1,.18-.32c.06-.1.12-.24.21-.27a.32.32,0,0,1,.29.1,1.4,1.4,0,0,1,0,.54c0,.08-.08.16-.08.25,0,.28.56.67-.17.82-.1,0-.18.17-.28.27a1,1,0,0,0,.33.06c.22,0,.49-.18.66-.11.74.3.65.69.05,1.08l-.15.07a4.27,4.27,0,0,0-1.09.29c-.83.48-1.31,1.46-2.38,1.6a2.86,2.86,0,0,0-.6.21s-.09.07-.09.1a.51.51,0,0,0,.07.17s.08,0,.08,0c.21-.38.51-.12.77-.13.63,0,.76.86,1.43.75.08,0,.18.18.27.28h-.58c0,.06,0,.16,0,.17a.74.74,0,0,0,.26,0c.27,0,.5.36.79.07.11.33-.22.28-.33.34a11.46,11.46,0,0,1-1.17.39,1.84,1.84,0,0,0-1.36.73l-.06.1a6.18,6.18,0,0,0-3.06,1.7c-.28.32-.59.6-.86.92-.13.13-.54.42,0,.65,0,0,0,.24-.07.26a2.21,2.21,0,0,1-.62.13c-1.11.05-2.21.13-3.31.1-.47,0-.93-.39-1.41-.42-.68-.05-1.06-1.14-1.9-.5-.27-.61-.65.27-.93-.08-.13-.15.69-.26,0-.46a15.16,15.16,0,0,0-5.83-.88c-.65.06-1.11,1.24-1.81,1.61A15.73,15.73,0,0,1,2.17,30.15Z"/><path class="cls-3" d="M26.3,25.34A11.46,11.46,0,0,0,27.47,25c.11-.06.44,0,.33-.34-.29.29-.52-.08-.79-.07a.74.74,0,0,1-.26,0s0-.11,0-.17h.58c-.09-.1-.19-.29-.27-.28-.67.11-.8-.79-1.43-.75-.26,0-.56-.25-.77.13,0,0-.07,0-.08,0a.51.51,0,0,1-.07-.17s0-.08.09-.1a2.86,2.86,0,0,1,.6-.21c1.07-.14,1.55-1.12,2.38-1.6a4.27,4.27,0,0,1,1.09-.29l.07.08c.18.21-.71.4,0,.63l.76.54,0,.1,0,0-.54.38-.32.06-.1,0V23c-.21.31-.61.52-.43,1l-.07.26.25,0L28.32,24a.06.06,0,0,1,0,0c.65.06.46-1,1.19-.87l0,0,.07.53a2.54,2.54,0,0,1,.56-.34c.52-.15.61-.66.87-1,.41-.57,1.1-.9,1.31-1.68.1-.36.62-.61,1-.88,0,0,.32.18.32.27,0,.68.51.85,1,.95.23.05.31,0,.34-.44.06-.65.79-1.14.87-2,.06-.56.75-1,1-1.6.12-.24-.09-.65-.16-1,.35,0,.7,0,1.05,0,1.32-.1,2.39,1,3.75.72C43.72,17.89,44,19.82,43.6,22c-.1.56-.56.93-.8,1.42a14.43,14.43,0,0,1-2,2.68c-1,1.16-2.32.22-3.44.48s-2.17-.38-3.21.46c-.48.39-1.41.19-2.13.33-1,.19-1.9.5-2.87.63a9.18,9.18,0,0,0-1.74.3c-.07,0-.19-.16-.3-.19-.51-.15-.82.48-1.4.36-.26-.05-.51-.17-.53-.28-.07-.43-.41-.18-.6-.3a3.66,3.66,0,0,0-.46-.18,2.19,2.19,0,0,1,.59-.17c.18,0,.39.09.43-.14s.52-.45-.06-.58c-.08,0-.19-.19-.17-.23.14-.21.13-.34-.06-.46l.06-.1c.42-.12.85-.23,1.27-.36a1.19,1.19,0,0,0,.29-.21Zm1.12-3h0l-.08,0,0,0Zm0,1.07.08.13.06-.06-.13-.08-.09-.13-.05.06Zm.7,1c-.06,0-.1-.1-.14-.1s-.07.06-.1.09.06.08.09.09S28.1,24.44,28.17,24.4Zm.18-1.78-.07,0,.07,0,.07,0Zm0-.81,0,0s0,0,0,0,0,0,0,0ZM27,22.56v0h0v0Zm.64.05h0Zm-.54-.21h0ZM28.39,22h0l0,0Z"/><path class="cls-2" d="M29.52,23.09c-.73-.17-.54.93-1.19.87l.73-1.13.54-.38,0,0c1.21-.44,1.29-.56,1-1.44,0-.05,0-.13.06-.19.3-.6,1.18-.38,1.45-1,.3-.11.91.08.56-.64-.05-.1.19-.4.35-.54s.38-.06.51.14c0,0,.09,0,.14.07a.59.59,0,0,0,0-.08c-.8-.8.37-1.24.54-1.4.67-.64.36-1.47.7-2.11s-.06-1.08-.38-1.56.15-2.25.76-2.26a1.51,1.51,0,0,1,1.41,1.11c.15.54.6.49.86.76a3.74,3.74,0,0,0,2.4.93c.88.12.5,1.15,1,1.59.12.11-.86-.17-.29.41a3.46,3.46,0,0,0,.78.45c-1.36.31-2.43-.82-3.75-.72-.35,0-.7,0-1.05,0,.07.33.28.74.16,1-.27.57-1,1-1,1.6-.08.83-.81,1.32-.87,2,0,.41-.11.49-.34.44-.5-.1-1-.27-1-.95,0-.09-.29-.29-.32-.27-.35.27-.87.52-1,.88-.21.78-.9,1.11-1.31,1.68-.26.35-.35.86-.87,1a2.54,2.54,0,0,0-.56.34l-.07-.53,0,0Z"/><path class="cls-4" d="M42.22,14.42c-.43-.28-.59-.9-1.23-.89a4.67,4.67,0,0,1-2.55-.71c-.3-.2-.26-1-1-.7-.06-.24-.62-.39-.17-.72a1.89,1.89,0,0,1,.65-.17l.36-.07s0-.07-.07-.07a2.36,2.36,0,0,0-.59,0,5.93,5.93,0,0,0-.71.24c0-.1,0-.29.1-.3a2.13,2.13,0,0,1,1.92.1,2,2,0,0,0,.33.16.71.71,0,0,0-.2-.22,2.09,2.09,0,0,0-1.41-.45c-.57.1-1.14,0-1.31-.61-.13-.43.49-.49.74-.68,2.06-1.57,5.73-.45,6.5,2a4.64,4.64,0,0,0,.51,1.66c0,.05,0,.25-.06.25-.31,0-.66,0-.86-.29a3.49,3.49,0,0,1-.25-.59c-.13.21-.36.41-.36.62s.26.37.4.55l.29.36a1.94,1.94,0,0,0-.34,0s-.06.06-.09.09a4.67,4.67,0,0,0,.51.23s.1-.15.14-.24c.12-.24-.56-.53-.09-.62.75-.16,1,.57,1.35,1.09,0,0-.09.1-.12.09s-.25-.12-.38-.18l.39.7a4.19,4.19,0,0,0,.26.33l-.36-.23c-.25-.16-.41-.71-.82-.19a.22.22,0,0,1-.22,0,1.53,1.53,0,0,0-1.07-.32Zm-.67-1.63c-.15,0,.12-.1.06-.42-.19-1.08-1.19-.49-1.77-.79-.08-.05-.26.08-.39.13A2.77,2.77,0,0,0,41.55,12.79Z"/><path class="cls-3" d="M29,21c.6-.39.69-.78-.05-1.08-.17-.07-.44.09-.66.11A1,1,0,0,1,28,20c.1-.1.18-.25.28-.27.73-.15.18-.54.17-.82,0-.09.08-.17.08-.25a1.4,1.4,0,0,0,0-.54.32.32,0,0,0-.29-.1c-.09,0-.15.17-.21.27a3.3,3.3,0,0,0-.18.32l-.15-.76c0-.23.53-.89-.37-.51,0,0-.15,0-.15-.06,0-.24.05-.47.08-.7,0,0,.08,0,.1,0,1,.52,1.59.58,1.17-.85-.11-.35,0-.55.42-.29.11.07.3,0,.45,0,0-.19-.06-.49-.16-.53-.54-.19-1.1-.31-1.65-.47a1.16,1.16,0,0,1-.35-.21h1.17l.06.17.05-.13.05,0,.12.13.09-.19a20.73,20.73,0,0,1,3.94-.14c.46.06.41-.67.65-1,.13-.18.22-.38.34-.58-.35.71.73,1.52-.15,2.16a1,1,0,0,0-.48.91c-.34-.06.1,1.46-.76.38,0,0-.35-.32-.48,0,0,.1.13.31.22.46a.56.56,0,0,1,.06.41c-.05.36-.64.23-.52.66v.15a1,1,0,0,0-.22.86v.08c-.22-.22-.43-.09-.64,0h0L30,18a4.37,4.37,0,0,1-.22.43.53.53,0,0,1-.19.13c0-.08-.1-.19-.07-.23.13-.21.06-.44-.13-.43s-.39.21-.59.33c.14.19-.18.54.15.64.92.28.62,1.26,1.08,1.8l-1,.4Zm.7-6.17a.56.56,0,0,0,.05-.08l0,0,0,.1v0ZM31,16c.24-.9-.25-.59-.42-.7s-.32.15-.49.24c.22.31.39.71.88.49C31.11,16,31.13,15.77,31,16Zm-2.38,1.8.25.18c-.11-.25.12-.31.24-.44l-.3-.2Zm.9-.12a1.56,1.56,0,0,0-.24-.11s-.05.06-.08.09a.93.93,0,0,0,.2.1S29.5,17.71,29.56,17.66Zm.23.3s0,0-.06,0,0,0-.05,0,0,0,.05,0S29.77,18,29.79,18Zm2.61-2.78,0,0v0s0,0,0,0Zm-1.93-.88,0,0h-.06Zm.35,0h-.05v0s0,0,0,0Zm-1.7.05h0v0h0Zm3.14,1h0s0,0,0,0S32.25,15.31,32.26,15.29Zm.45-1v0h0Z"/><path class="cls-2" d="M31.29,18.44a1,1,0,0,1,.22-.86l.35.05-.35-.2c-.12-.43.47-.3.52-.66a.56.56,0,0,0-.06-.41c-.09-.15-.26-.36-.22-.46.13-.29.46,0,.48,0,.86,1.08.42-.44.76-.38a1,1,0,0,1,.48-.91c.88-.64-.2-1.45.15-2.16h0l0-.09a.33.33,0,0,1,0-.52c.26-.25.13-.79.62-.86,0,0,.13.05.12.06a3.53,3.53,0,0,1-.3,1.06,1.91,1.91,0,0,0,0,2c.28.67-.09,1.16-.36,1.68,0,0-.06,0-.08,0,0-.3-.25-.61-.41-.43a2.71,2.71,0,0,0-.29,1.11.67.67,0,0,0,0,.24c-.1,0-.21-.07-.31-.12s-.18-.12-.28-.18c0,.16-.34.41.11.49a3.18,3.18,0,0,1-.26,1.15c-.29.42-.49.78-.24,1.28,0,.07-.07.21-.11.32-.38.77-1.17.81-1.85,1.05-.46-.54-.16-1.52-1.08-1.8-.33-.1,0-.45-.15-.64.2-.12.39-.32.59-.33s.26.22.13.43c0,0,0,.15.07.23a.53.53,0,0,0,.19-.13A4.37,4.37,0,0,0,30,18l.67.51c-.57.16.42.44,0,.61,0,0,.06.09.08.09l1-.26a2.89,2.89,0,0,1-.58-.14,3.32,3.32,0,0,1-.49-.31c.21-.11.42-.24.64,0l.4.16c0-.28,0-.57,0-.86,0,0-.08-.06-.1-.05-.19.15-.14.32-.07.51C31.55,18.3,31.38,18.38,31.29,18.44Z"/><path class="cls-4" d="M42.38,16.42c-.06-.07-.1-.19-.18-.21-1.17-.31-.67-.45.06-.58l.45.43c.57.56,1.42.33,2.06.76s1.42.78,2.13,1.15c.09,0,.21,0,.31,0a1.24,1.24,0,0,0-.18-.21,14.18,14.18,0,0,1-2.86-2c.92.48,1.83,1,2.78,1.42a6.46,6.46,0,0,1,2.53,2.07c.15.19.26-.12.32-.27a1.42,1.42,0,0,0,.06-.31,2.52,2.52,0,0,1,0,.37,1.42,1.42,0,0,1,0,.36,1.45,1.45,0,0,1-.74.95s-.16-.32-.3-.42a17.72,17.72,0,0,0-5.57-3.21,1.71,1.71,0,0,0-.39,0Zm6.76,3.11A1.57,1.57,0,0,0,48,18.34s-.16.12-.15.15c.07.19.18.38.27.57a1.18,1.18,0,0,1,.07-.2,1.1,1.1,0,0,1,.09-.14c0,.06,0,.14.06.18.21.26.43.5.65.75Z"/><path class="cls-1" d="M44.17,15.75a14.18,14.18,0,0,0,2.86,2,1.24,1.24,0,0,1,.18.21c-.1,0-.22,0-.31,0-.71-.37-1.46-.71-2.13-1.15s-1.49-.2-2.06-.76l-.45-.43c.09-.41-.32-.8,0-1.21l.21.15Z"/><path class="cls-2" d="M42.38,16.42l.48.26c-.07.52-.12.54-.58.3-.13-.07-.35-.16-.36-.26C41.89,16.38,42.23,16.54,42.38,16.42Z"/><path class="cls-1" d="M28.69,14.2l-.09.19-.12-.13h.05l.06-.05Z"/><path class="cls-1" d="M28.43,14.24l-.05.13-.06-.17Z"/><path class="cls-3" d="M33.57,12.39l0,.09Z"/><path class="cls-3" d="M28.59,14.2l-.06.05Z"/><path class="cls-1" d="M29,21.11l-.09,0-.07-.08L29,21Z"/><path class="cls-4" d="M28.91,21.78l1.19,0-.43.51Z"/><path class="cls-1" d="M28.22,24l.1,0,.08.19-.25,0Z"/><path class="cls-1" d="M28.17,24.4c-.07,0-.11.08-.15.08s-.06-.06-.09-.09.07-.09.1-.09S28.11,24.35,28.17,24.4Z"/><path class="cls-1" d="M27.47,23.43l-.13-.08.05-.06.09.13Z"/><path class="cls-1" d="M27.48,23.42l.13.08-.06.06-.08-.13Z"/><path class="cls-1" d="M28.35,22.62l.07,0-.07,0-.07,0Z"/><path class="cls-1" d="M28.37,21.82h0s0,0,0,0,0,0,0,0Z"/><path class="cls-1" d="M27.42,22.36h-.1l0,0,.08,0Z"/><path class="cls-1" d="M28.74,22.89l-.09.07v-.1Z"/><path class="cls-1" d="M27,22.56l0,0v0h0Z"/><path class="cls-1" d="M27.68,22.61h0Z"/><path class="cls-1" d="M27.14,22.4v0h0Z"/><path class="cls-1" d="M28.39,22h0l0,0Z"/><path class="cls-1" d="M29.63,22.42l0,0,0,0Z"/><path class="cls-1" d="M27.42,22.36h0Z"/><path class="cls-3" d="M29.52,23.09h.06l0,0Z"/><path class="cls-1" d="M41.55,12.79a2.77,2.77,0,0,1-2.1-1.08c.13-.05.31-.18.39-.13.58.3,1.58-.29,1.77.79C41.67,12.69,41.4,12.76,41.55,12.79Z"/><path class="cls-2" d="M31,16c.09-.21.07,0,0,0-.49.22-.66-.18-.88-.49.17-.09.41-.29.49-.24S31.28,15.08,31,16Z"/><path class="cls-1" d="M31.29,18.44c.09-.06.26-.14.25-.16-.07-.19-.12-.36.07-.51,0,0,.1,0,.1.05,0,.29,0,.58,0,.86l-.4-.16Z"/><path class="cls-1" d="M28.66,17.78l.19-.46.3.2c-.12.13-.35.19-.24.44Z"/><path class="cls-1" d="M29.56,17.66c-.06.05-.1.09-.12.08a.93.93,0,0,1-.2-.1s.07-.09.08-.09A1.56,1.56,0,0,1,29.56,17.66Z"/><path class="cls-1" d="M31.51,17.43l.35.2-.35-.05Z"/><path class="cls-1" d="M29.79,18s0,0-.06,0,0,0-.05,0,0,0,.05,0S29.77,17.94,29.79,18Z"/><path class="cls-1" d="M32.4,15.18l0,0s0,0,0,0v0Z"/><path class="cls-1" d="M30.47,14.3l0,0h.06Z"/><path class="cls-1" d="M30.82,14.27l0,0s0,0,0,0v0Z"/><path class="cls-1" d="M29.7,14.83l0-.1,0,0a.56.56,0,0,1-.05.08Z"/><path class="cls-1" d="M29.12,14.32l0,0h0v0Z"/><path class="cls-1" d="M32.26,15.3l0,0s0,0,0,0h0Z"/><path class="cls-1" d="M32.71,14.25h0v0Z"/><path class="cls-1" d="M29.7,14.83v0Z"/><path class="cls-1" d="M30.65,18.54a3.32,3.32,0,0,0,.49.31,2.89,2.89,0,0,0,.58.14l-1,.26s-.06-.06-.08-.09c.46-.17-.53-.45,0-.61Z"/><path class="cls-5" d="M49.14,19.53l-.11.12c-.22-.25-.44-.49-.65-.75,0,0,0-.12-.06-.18a1.1,1.1,0,0,0-.09.14,1.18,1.18,0,0,0-.07.2c-.09-.19-.2-.38-.27-.57,0,0,.11-.16.15-.15A1.57,1.57,0,0,1,49.14,19.53Z"/></svg>